<svg xmlns="http://www.w3.org/2000/svg" version="1.1" xmlns:xlink="http://www.w3.org/1999/xlink" xmlns:svgjs="http://svgjs.dev/svgjs" width="1000" height="1000" viewBox="0 0 1000 1000"><rect width="1000" height="1000" fill="#ffffff"></rect><g transform="matrix(0.7,0,0,0.7,150,150.0000000000001)"><svg viewBox="0 0 280 280" data-background-color="#ffffff" preserveAspectRatio="xMidYMid meet" height="1000" width="1000" xmlns="http://www.w3.org/2000/svg" xmlns:xlink="http://www.w3.org/1999/xlink"><g id="tight-bounds" transform="matrix(1,0,0,1,0,-2.842170943040401e-14)"><svg viewBox="0 0 280 280" height="280" width="280"><g><svg viewBox="0 0 280 280" height="280" width="280"><g><svg viewBox="0 0 280 280" height="280" width="280"><g id="textblocktransform"><svg viewBox="0 0 280 280" height="280" width="280" id="textblock"><g><svg viewBox="0 0 280 280" height="280" width="280"><g transform="matrix(1,0,0,1,57.50420886156945,57.50420886156945)"><svg viewBox="0 0 164.9915822768611 164.9915822768611" height="164.9915822768611" width="164.9915822768611"><g><circle r="82" cx="82.49579113843055" cy="82.49579113843055" fill="#003c3b" data-fill-palette-color="accent"></circle><svg xmlns="http://www.w3.org/2000/svg" xmlns:xlink="http://www.w3.org/1999/xlink" version="1.1" x="24.74873734152917" y="24.748737341529164" viewBox="7.734947204589844 7.735245704650879 84.53054809570312 84.5302505493164" enable-background="new 0 0 100 100" xml:space="preserve" height="115.49410759380275" width="115.49410759380275" class="icon-o-0" data-fill-palette-color="quaternary" id="o-0"><g fill="#ffffff" data-fill-palette-color="quaternary"><g fill="#ffffff" data-fill-palette-color="quaternary"><g fill="#ffffff" data-fill-palette-color="quaternary"><path d="M28.368 14.767C42.162 16.327 48.04 25.762 49.69 30.695c1.07 3.198 1.472 5.094 1.472 9.275 0 0.817 0.044 2.076-1.054 2.216-0.77 0.099-1.209-0.509-1.273-1.182-0.289-3.026-1.159-6.569-4.008-9.85-2.253-2.594-7.472-7.802-16.652-7.021-2.669 0.228-5.052-1.868-5.129-4.564C22.964 16.703 25.531 14.446 28.368 14.767z" fill="#ffffff" data-fill-palette-color="quaternary"></path><path d="M71.633 85.232c-13.794-1.561-19.671-10.995-21.322-15.929-1.07-3.198-1.472-5.094-1.472-9.275 0-0.817-0.044-2.076 1.054-2.216 0.77-0.099 1.209 0.509 1.273 1.182 0.289 3.026 1.159 6.569 4.008 9.85 2.253 2.594 7.472 7.802 16.652 7.021 2.669-0.228 5.052 1.868 5.129 4.564C77.037 83.296 74.47 85.553 71.633 85.232z" fill="#ffffff" data-fill-palette-color="quaternary"></path></g><g fill="#ffffff" data-fill-palette-color="quaternary"><path d="M14.768 71.633c1.56-13.794 10.995-19.672 15.928-21.322 3.198-1.07 5.094-1.472 9.276-1.472 0.817 0 2.076-0.045 2.216 1.054 0.098 0.77-0.509 1.209-1.182 1.273-3.026 0.288-6.569 1.159-9.849 4.008-2.594 2.254-7.802 7.473-7.021 16.652 0.228 2.669-1.868 5.052-4.564 5.129C16.704 77.036 14.447 74.47 14.768 71.633z" fill="#ffffff" data-fill-palette-color="quaternary"></path><path d="M85.233 28.367c-1.56 13.794-10.995 19.672-15.928 21.322-3.198 1.07-5.094 1.472-9.276 1.472-0.817 0-2.076 0.045-2.216-1.054-0.098-0.77 0.509-1.209 1.182-1.273 3.026-0.288 6.569-1.159 9.849-4.008 2.594-2.254 7.802-7.473 7.021-16.652-0.228-2.669 1.868-5.052 4.564-5.129C83.297 22.964 85.554 25.53 85.233 28.367z" fill="#ffffff" data-fill-palette-color="quaternary"></path></g></g><g fill="#ffffff" data-fill-palette-color="quaternary"><g fill="#ffffff" data-fill-palette-color="quaternary"><path d="M13.65 30.304c12.726-5.546 22.533-0.314 26.43 3.133 2.526 2.234 3.821 3.676 5.912 7.297 0.409 0.708 1.077 1.775 0.195 2.446-0.617 0.47-1.302 0.164-1.693-0.387-1.763-2.477-4.289-5.109-8.396-6.525-3.249-1.12-10.373-3.021-17.931 2.246-2.198 1.531-5.309 0.907-6.724-1.389C9.938 34.682 11.033 31.444 13.65 30.304z" fill="#ffffff" data-fill-palette-color="quaternary"></path><path d="M86.351 69.695c-12.726 5.546-22.533 0.314-26.43-3.133-2.526-2.234-3.821-3.676-5.912-7.297-0.409-0.708-1.077-1.775-0.196-2.446 0.618-0.47 1.302-0.164 1.694 0.387 1.763 2.477 4.289 5.109 8.396 6.525 3.249 1.12 10.373 3.021 17.931-2.245 2.198-1.532 5.309-0.908 6.724 1.388C90.063 65.317 88.968 68.555 86.351 69.695z" fill="#ffffff" data-fill-palette-color="quaternary"></path></g><g fill="#ffffff" data-fill-palette-color="quaternary"><path d="M30.304 86.351c-5.546-12.726-0.314-22.533 3.133-26.43 2.235-2.525 3.676-3.821 7.298-5.912 0.708-0.409 1.775-1.076 2.445-0.195 0.47 0.617 0.164 1.302-0.387 1.693-2.477 1.764-5.109 4.289-6.525 8.396-1.12 3.248-3.021 10.372 2.246 17.931 1.531 2.198 0.908 5.31-1.389 6.725C34.683 90.062 31.445 88.968 30.304 86.351z" fill="#ffffff" data-fill-palette-color="quaternary"></path><path d="M69.696 13.649c5.546 12.726 0.314 22.533-3.133 26.43-2.234 2.526-3.675 3.821-7.297 5.913-0.708 0.408-1.775 1.076-2.446 0.195-0.47-0.618-0.163-1.303 0.388-1.694 2.477-1.763 5.109-4.288 6.525-8.396 1.12-3.249 3.021-10.372-2.246-17.932-1.532-2.198-0.908-5.309 1.388-6.724C65.318 9.938 68.556 11.032 69.696 13.649z" fill="#ffffff" data-fill-palette-color="quaternary"></path></g></g><g fill="#ffffff" data-fill-palette-color="quaternary"><g fill="#ffffff" data-fill-palette-color="quaternary"><path d="M8.671 51.118c8.248-11.166 19.357-11.539 24.456-10.502 3.305 0.672 5.147 1.272 8.769 3.363 0.708 0.408 1.82 0.999 1.392 2.021-0.299 0.716-1.045 0.793-1.66 0.512-2.765-1.263-6.269-2.28-10.533-1.453-3.374 0.654-10.494 2.57-14.406 10.911-1.138 2.425-4.144 3.44-6.518 2.159C7.646 56.766 6.976 53.414 8.671 51.118z" fill="#ffffff" data-fill-palette-color="quaternary"></path><path d="M91.329 48.882C83.081 60.047 71.971 60.42 66.874 59.383c-3.305-0.672-5.147-1.272-8.769-3.363-0.708-0.408-1.82-0.999-1.393-2.021 0.3-0.716 1.046-0.793 1.66-0.512 2.766 1.264 6.269 2.28 10.534 1.453 3.373-0.654 10.493-2.569 14.406-10.91 1.138-2.426 4.144-3.441 6.517-2.16C92.354 43.233 93.025 46.585 91.329 48.882z" fill="#ffffff" data-fill-palette-color="quaternary"></path></g><g fill="#ffffff" data-fill-palette-color="quaternary"><path d="M51.119 91.329C39.953 83.081 39.58 71.972 40.617 66.874c0.673-3.305 1.272-5.147 3.364-8.77 0.409-0.708 1-1.819 2.02-1.392 0.716 0.3 0.793 1.045 0.512 1.66-1.263 2.765-2.28 6.269-1.453 10.533 0.654 3.374 2.57 10.493 10.911 14.406 2.425 1.138 3.44 4.144 2.159 6.518C56.766 92.354 53.415 93.025 51.119 91.329z" fill="#ffffff" data-fill-palette-color="quaternary"></path><path d="M48.882 8.672c11.166 8.247 11.538 19.356 10.501 24.455-0.672 3.305-1.271 5.147-3.362 8.77-0.409 0.707-1 1.819-2.021 1.392-0.716-0.3-0.792-1.046-0.511-1.661 1.263-2.765 2.28-6.268 1.453-10.533-0.655-3.373-2.57-10.492-10.911-14.406-2.426-1.137-3.44-4.144-2.159-6.517C43.234 7.646 46.585 6.976 48.882 8.672z" fill="#ffffff" data-fill-palette-color="quaternary"></path></g></g></g></svg></g></svg></g><g><path d="M30.113 111.844l-26.519-8.655 4.575-14.017 3.637 1.187-3.277 10.039 7.16 2.337 2.535-7.766 3.637 1.187-2.535 7.766 12.085 3.944z" fill="#c10000" data-fill-palette-color="primary"></path><path d="M41.325 85.355l-23.346-15.268 4.144-6.336c1.6-2.446 3.45-3.965 5.553-4.559 2.102-0.593 4.343-0.112 6.722 1.444v0c1.379 0.902 2.413 2.014 3.102 3.338 0.69 1.324 0.978 2.727 0.866 4.209v0l12.927 1.931-2.639 4.035-11.556-1.843c-0.065 0.148-0.221 0.411-0.468 0.789v0l-1.92 2.935 8.905 5.824zM31.609 74.001l1.657-2.534c0.989-1.512 1.384-2.856 1.186-4.034-0.198-1.177-0.987-2.217-2.365-3.118v0c-1.401-0.916-2.68-1.229-3.838-0.939-1.158 0.29-2.231 1.191-3.22 2.703v0l-1.658 2.535z" fill="#c10000" data-fill-palette-color="primary"></path><path d="M61.024 60.084l-18.477-20.898 11.435-10.11 2.534 2.866-8.3 7.338 5.015 5.673 6.479-5.728 2.534 2.866-6.479 5.728 5.86 6.628 8.538-7.55 2.534 2.866z" fill="#c10000" data-fill-palette-color="primary"></path><path d="M91.471 39.736c-1.217 0.596-2.531 1.068-3.942 1.418-1.411 0.35-2.651 0.521-3.72 0.512v0l-1.567-4.38c2.921 0.227 5.515-0.214 7.782-1.323v0c1.336-0.654 2.249-1.433 2.738-2.338 0.489-0.905 0.482-1.87-0.02-2.897v0c-0.537-1.098-1.363-1.803-2.477-2.115-1.114-0.313-2.86-0.42-5.237-0.321v0c-1.83 0.068-3.351 0.013-4.561-0.164-1.21-0.177-2.282-0.584-3.215-1.221-0.933-0.638-1.709-1.589-2.328-2.854v0c-0.666-1.36-0.906-2.729-0.723-4.105 0.184-1.377 0.762-2.658 1.735-3.844 0.973-1.186 2.294-2.187 3.965-3.005v0c2.267-1.109 4.607-1.677 7.018-1.704v0l1.551 4.166c-2.696-0.13-5.058 0.301-7.087 1.294v0c-1.265 0.619-2.12 1.348-2.567 2.188-0.447 0.84-0.413 1.785 0.101 2.834v0c0.362 0.74 0.868 1.261 1.519 1.564 0.651 0.303 1.401 0.475 2.25 0.518 0.849 0.043 2.183 0.048 4.001 0.016v0c2.674-0.037 4.789 0.267 6.346 0.91 1.557 0.643 2.762 1.836 3.614 3.578v0c1.063 2.172 1.14 4.263 0.231 6.275-0.908 2.012-2.711 3.678-5.407 4.998z" fill="#c10000" data-fill-palette-color="primary"></path><path d="M113.586 31.019l-4.954-27.452 4.118-0.743 2.01 11.138 11.529-2.081-2.01-11.138 4.118-0.743 4.954 27.452-4.117 0.743-2.216-12.275-11.529 2.081 2.215 12.275z" fill="#c10000" data-fill-palette-color="primary"></path><path d="M155.741 29.235c-1.345-0.162-2.705-0.48-4.079-0.953-1.375-0.473-2.508-1.005-3.401-1.594v0l1.068-4.528c2.328 1.779 4.744 2.82 7.25 3.122v0c1.477 0.178 2.667 0.02 3.569-0.473 0.902-0.493 1.422-1.307 1.559-2.441v0c0.146-1.213-0.163-2.254-0.928-3.122-0.765-0.868-2.172-1.908-4.22-3.118v0c-1.573-0.939-2.819-1.812-3.739-2.618-0.92-0.807-1.598-1.731-2.033-2.774-0.436-1.043-0.57-2.263-0.402-3.661v0c0.181-1.503 0.724-2.783 1.627-3.838 0.903-1.055 2.085-1.816 3.546-2.282 1.461-0.466 3.115-0.588 4.961-0.365v0c2.506 0.302 4.778 1.098 6.817 2.387v0l-0.965 4.34c-2.192-1.575-4.408-2.498-6.65-2.769v0c-1.398-0.169-2.513-0.022-3.344 0.44-0.832 0.462-1.317 1.273-1.458 2.433v0c-0.099 0.818 0.043 1.53 0.425 2.138 0.382 0.608 0.917 1.161 1.606 1.659 0.689 0.498 1.805 1.228 3.349 2.19v0c2.263 1.424 3.874 2.829 4.83 4.215 0.957 1.386 1.319 3.042 1.087 4.968v0c-0.289 2.4-1.362 4.197-3.219 5.392-1.857 1.194-4.275 1.612-7.256 1.252z" fill="#c10000" data-fill-palette-color="primary"></path><path d="M192.209 39.537l0.853-7.429-7.67-3.248-4.705 5.797-3.963-1.679 18.732-22.36 3.742 1.585-3.026 29.012zM187.927 25.736l5.615 2.377 1.283-10.795z" fill="#c10000" data-fill-palette-color="primary"></path><path d="M235.881 35.501l3.371 2.676-24.212 16.395-3.807-3.023 10.479-27.298 3.371 2.676-8.651 21.983z" fill="#c10000" data-fill-palette-color="primary"></path><path d="M230.96 70.171l22.394-16.632 9.1 12.253-3.071 2.281-6.605-8.894-6.079 4.514 5.156 6.943-3.071 2.281-5.156-6.943-7.102 5.275 6.795 9.15-3.071 2.281z" fill="#c10000" data-fill-palette-color="primary"></path><path d="M246.733 95.773l26.033-10.02 2.72 7.066c1.05 2.727 1.201 5.117 0.454 7.17-0.747 2.053-2.447 3.589-5.101 4.61v0c-1.537 0.592-3.044 0.78-4.521 0.566-1.477-0.214-2.784-0.8-3.922-1.757v0l-9.122 9.361-1.732-4.5 8.25-8.299c-0.082-0.139-0.204-0.42-0.367-0.842v0l-1.259-3.272-9.93 3.822zM261.624 94.524l1.088 2.827c0.649 1.686 1.509 2.793 2.58 3.32 1.071 0.527 2.375 0.495 3.913-0.097v0c1.562-0.601 2.564-1.456 3.005-2.566 0.441-1.109 0.337-2.507-0.312-4.193v0l-1.088-2.826z" fill="#c10000" data-fill-palette-color="primary"></path><path d="M11.233 182.246l27.039-8.861 4.684 14.295-3.711 1.217-3.354-10.234-7.299 2.392 2.594 7.914-3.702 1.213-2.593-7.914-12.327 4.039z" fill="#c10000" data-fill-palette-color="primary"></path><path d="M24.666 213.344l23.803-15.588 4.235 6.467c1.63 2.489 2.294 4.837 1.993 7.043-0.307 2.21-1.672 4.108-4.095 5.695v0c-1.406 0.921-2.868 1.434-4.387 1.539-1.519 0.105-2.948-0.197-4.286-0.908v0l-7.084 11.296-2.696-4.117 6.44-10.042c-0.113-0.124-0.295-0.378-0.546-0.761v0l-1.96-2.992-9.076 5.944zM39.251 208.902l1.692 2.583c1.008 1.539 2.102 2.458 3.282 2.757 1.186 0.295 2.482-0.017 3.887-0.938v0c1.428-0.935 2.241-2.003 2.439-3.205 0.203-1.205-0.199-2.577-1.207-4.116v0l-1.692-2.583z" fill="#c10000" data-fill-palette-color="primary"></path><path d="M47.794 242.609l18.843-21.32 11.667 10.313-2.586 2.926-8.465-7.482-5.113 5.785 6.606 5.839-2.586 2.926-6.607-5.839-5.971 6.756 8.712 7.7-2.587 2.926z" fill="#c10000" data-fill-palette-color="primary"></path><path d="M82.213 266.973c-1.241-0.608-2.442-1.37-3.605-2.287-1.169-0.92-2.085-1.813-2.749-2.678v0l2.547-3.999c1.648 2.493 3.63 4.307 5.944 5.44v0c1.36 0.666 2.559 0.913 3.597 0.741 1.032-0.175 1.804-0.784 2.315-1.828v0c0.549-1.121 0.603-2.227 0.16-3.316-0.449-1.092-1.457-2.566-3.026-4.422v0c-1.2-1.431-2.106-2.692-2.717-3.782-0.615-1.085-0.955-2.202-1.021-3.352-0.072-1.152 0.208-2.372 0.838-3.66v0c0.678-1.384 1.629-2.434 2.853-3.151 1.227-0.708 2.622-1.042 4.184-1.001 1.563 0.041 3.197 0.479 4.903 1.314v0c2.308 1.131 4.229 2.659 5.763 4.586v0l-2.388 3.856c-1.581-2.253-3.406-3.887-5.476-4.901v0c-1.288-0.631-2.413-0.864-3.374-0.698-0.952 0.162-1.691 0.78-2.217 1.854v0c-0.368 0.752-0.472 1.485-0.311 2.199 0.166 0.717 0.497 1.431 0.993 2.139 0.496 0.709 1.326 1.785 2.49 3.228v0c1.699 2.134 2.778 4.03 3.237 5.69 0.453 1.657 0.246 3.371-0.621 5.142v0c-1.087 2.219-2.724 3.591-4.912 4.117-2.188 0.526-4.657 0.115-7.407-1.231z" fill="#c10000" data-fill-palette-color="primary"></path><path d="M109.824 276.348l5.071-27.998 4.206 0.762-2.058 11.362 11.754 2.128 2.057-11.361 4.206 0.761-5.071 27.998-4.206-0.762 2.268-12.518-11.754-2.129-2.268 12.518z" fill="#c10000" data-fill-palette-color="primary"></path><path d="M158.198 279.48c-1.372 0.165-2.795 0.178-4.269 0.041-1.481-0.137-2.736-0.387-3.763-0.752v0l-0.037-4.742c2.739 1.196 5.388 1.641 7.946 1.334v0c1.504-0.18 2.644-0.625 3.422-1.334 0.771-0.708 1.088-1.639 0.949-2.793v0c-0.149-1.24-0.705-2.196-1.669-2.87-0.97-0.673-2.618-1.361-4.944-2.066v0c-1.785-0.548-3.231-1.114-4.337-1.696-1.106-0.576-1.999-1.329-2.679-2.258-0.687-0.928-1.115-2.104-1.287-3.528v0c-0.184-1.53 0.043-2.928 0.681-4.195 0.645-1.261 1.634-2.3 2.967-3.116 1.334-0.816 2.943-1.337 4.829-1.563v0c2.552-0.306 4.996-0.068 7.331 0.716v0l0.093 4.534c-2.552-1.032-4.972-1.41-7.261-1.135v0c-1.424 0.171-2.495 0.587-3.211 1.248-0.711 0.654-0.995 1.574-0.853 2.761v0c0.1 0.831 0.411 1.503 0.934 2.015 0.53 0.512 1.195 0.93 1.997 1.256 0.802 0.325 2.083 0.777 3.845 1.354v0c2.586 0.867 4.523 1.872 5.811 3.016 1.281 1.144 2.039 2.695 2.274 4.653v0c0.294 2.453-0.333 4.495-1.883 6.126-1.55 1.631-3.845 2.629-6.886 2.994z" fill="#c10000" data-fill-palette-color="primary"></path><path d="M199.983 266.612l-4.829-5.898-7.828 3.309 0.902 7.557-4.047 1.711-3.067-29.594 3.827-1.618 19.089 22.822zM186.836 259.947l5.736-2.425-6.991-8.607z" fill="#c10000" data-fill-palette-color="primary"></path><path d="M213.215 223.782l3.436-2.722 10.661 27.853-3.889 3.081-24.679-16.75 3.444-2.728 19.821 13.697z" fill="#c10000" data-fill-palette-color="primary"></path><path d="M246.698 229.816l-22.812-17.006 9.306-12.484 3.131 2.334-6.752 9.058 6.19 4.614 5.27-7.068 3.131 2.334-5.27 7.069 7.229 5.388 6.949-9.321 3.131 2.334z" fill="#c10000" data-fill-palette-color="primary"></path><path d="M265.108 199.624l-26.532-10.278 2.793-7.209c1.075-2.775 2.597-4.681 4.566-5.721 1.976-1.037 4.314-1.032 7.014 0.015v0c1.567 0.607 2.835 1.497 3.805 2.67 0.97 1.173 1.556 2.512 1.757 4.015v0l13.309-0.817-1.778 4.589-11.914 0.609c-0.035 0.164-0.136 0.46-0.301 0.888v0l-1.292 3.335 10.117 3.919zM253.005 190.352l1.115-2.88c0.665-1.716 0.775-3.14 0.331-4.273-0.45-1.136-1.459-2.008-3.025-2.615v0c-1.592-0.617-2.933-0.656-4.026-0.117-1.098 0.536-1.979 1.662-2.644 3.378v0l-1.115 2.879z" fill="#c10000" data-fill-palette-color="primary"></path><path d="M12.572 143.931c0-1.801 1.46-3.261 3.261-3.26 1.801 0 3.261 1.46 3.261 3.26 0 1.801-1.46 3.261-3.261 3.261-1.801 0-3.261-1.46-3.261-3.261z" fill="#c10000" data-fill-palette-color="primary"></path><path d="M263.634 143.931c0-1.801 1.46-3.261 3.261-3.26 1.801 0 3.261 1.46 3.26 3.26 0 1.801-1.46 3.261-3.26 3.261-1.801 0-3.261-1.46-3.261-3.261z" fill="#c10000" data-fill-palette-color="primary"></path></g></svg></g></svg></g></svg></g><g></g></svg></g><defs></defs></svg><rect width="280" height="280" fill="none" stroke="none" visibility="hidden"></rect></g></svg></g></svg>